<?xml version="1.0" encoding="utf-8"?>
<!-- Generator: Adobe Illustrator 15.0.2, SVG Export Plug-In . SVG Version: 6.00 Build 0)  -->
<!DOCTYPE svg PUBLIC "-//W3C//DTD SVG 1.1//EN" "http://www.w3.org/Graphics/SVG/1.1/DTD/svg11.dtd">
<svg version="1.1" id="Слой_1" xmlns="http://www.w3.org/2000/svg" xmlns:xlink="http://www.w3.org/1999/xlink" x="0px" y="0px"
	 width="100px" height="100px" viewBox="0 0 100 100" enable-background="new 0 0 100 100" xml:space="preserve">
<path shape-rendering="auto" fill="#dddddd" d="M86.654,33.97c0,6.364,0,12.729,0,19.094c-11.283-6.216-22.375-12.628-33.41-19.094
	c0,0-13.917,7.828-20.683,11.934c0,7.688,0,15.38,0,23.067l19.888,11.934c0,0,17.217-9.709,16.705-9.545l-15.91-9.547
	c0-6.1,0-12.198,0-18.296l33.41,18.296c0,6.365,0,12.729,0,19.092C75.393,87.141,53.244,100,53.244,100s-24.21-13.977-36.593-20.684
	c0-14.586,0-29.17,0-43.755l36.593-19.889L86.654,33.97z"/>
<g>
	<path shape-rendering="auto" fill="#dddddd" d="M26.365,19.585c-4.827,0-8.754-3.927-8.754-8.754s3.927-8.754,8.754-8.754s8.754,3.927,8.754,8.754
		S31.192,19.585,26.365,19.585z"/>
</g>
</svg>
